<?xml version="1.0" encoding="UTF-8" standalone="no"?>
<svg
   width="31.749762"
   height="31.749762"
   viewBox="0 0 31.749761 31.749761"
   fill="none"
   stroke="currentColor"
   stroke-width="2"
   stroke-linecap="round"
   stroke-linejoin="round"
   class="icon icon-tabler icons-tabler-outline icon-tabler-notes"
   version="1.1"
   id="svg5"
   sodipodi:docname="notes.svg"
   xml:space="preserve"
   inkscape:export-filename="code-round.svg"
   inkscape:export-xdpi="1600"
   inkscape:export-ydpi="1600"
   inkscape:version="1.3.2 (1:1.3.2+202311252150+091e20ef0f)"
   xmlns:inkscape="http://www.inkscape.org/namespaces/inkscape"
   xmlns:sodipodi="http://sodipodi.sourceforge.net/DTD/sodipodi-0.dtd"
   xmlns="http://www.w3.org/2000/svg"
   xmlns:svg="http://www.w3.org/2000/svg"><defs
     id="defs5" /><sodipodi:namedview
     id="namedview5"
     pagecolor="#ffffff"
     bordercolor="#666666"
     borderopacity="1.0"
     inkscape:showpageshadow="2"
     inkscape:pageopacity="0.0"
     inkscape:pagecheckerboard="0"
     inkscape:deskcolor="#d1d1d1"
     showgrid="false"
     inkscape:zoom="32.958333"
     inkscape:cx="15.261694"
     inkscape:cy="16.824273"
     inkscape:window-width="2560"
     inkscape:window-height="1403"
     inkscape:window-x="0"
     inkscape:window-y="0"
     inkscape:window-maximized="1"
     inkscape:current-layer="svg5" /><path
     stroke="none"
     d="M 3.2886,3.2707005 H 27.288599 V 27.2707 H 3.2886 Z"
     fill="none"
     id="path1"
     inkscape:export-filename="monitor1.svg"
     inkscape:export-xdpi="1600"
     inkscape:export-ydpi="1600" /><circle
     style="fill:none;stroke-width:2"
     id="path6"
     cx="15.874881"
     cy="15.874881"
     r="14.874881" /><g
     style="fill:none;stroke:currentColor;stroke-width:2;stroke-linecap:round;stroke-linejoin:round"
     id="g9"
     transform="translate(3.8748808,3.8748808)"><path
       stroke="none"
       d="M 0,0 H 24 V 24 H 0 Z"
       fill="none"
       id="path1-6" /><path
       d="M 3,4 M 3,5 A 1,1 0 0 1 4,4 h 16 a 1,1 0 0 1 1,1 v 10 a 1,1 0 0 1 -1,1 H 4 A 1,1 0 0 1 3,15 Z"
       id="path2-2" /><path
       d="M 7,20 H 17"
       id="path3-9" /><path
       d="m 9,16 v 4"
       id="path4-1" /><path
       d="m 15,16 v 4"
       id="path5" /><path
       d="M 9,12 V 8"
       id="path6-2" /><path
       d="M 12,12 V 11"
       id="path7" /><path
       d="M 15,12 V 10"
       id="path8" /><path
       d="M 12,12 V 11"
       id="path9" /></g></svg>
