<?xml version="1.0" encoding="UTF-8" standalone="no"?>
<svg
   width="31.749762"
   height="31.749762"
   viewBox="0 0 31.749761 31.749761"
   fill="none"
   stroke="currentColor"
   stroke-width="2"
   stroke-linecap="round"
   stroke-linejoin="round"
   class="icon icon-tabler icons-tabler-outline icon-tabler-notes"
   version="1.1"
   id="svg5"
   sodipodi:docname="notes.svg"
   xml:space="preserve"
   inkscape:export-filename="monitor1.svg"
   inkscape:export-xdpi="1600"
   inkscape:export-ydpi="1600"
   xmlns:inkscape="http://www.inkscape.org/namespaces/inkscape"
   xmlns:sodipodi="http://sodipodi.sourceforge.net/DTD/sodipodi-0.dtd"
   xmlns="http://www.w3.org/2000/svg"
   xmlns:svg="http://www.w3.org/2000/svg"><defs
     id="defs5" /><sodipodi:namedview
     id="namedview5"
     pagecolor="#ffffff"
     bordercolor="#666666"
     borderopacity="1.0"
     inkscape:showpageshadow="2"
     inkscape:pageopacity="0.0"
     inkscape:pagecheckerboard="0"
     inkscape:deskcolor="#d1d1d1"
     showgrid="false" /><path
     stroke="none"
     d="M 3.2886,3.2707005 H 27.288599 V 27.2707 H 3.2886 Z"
     fill="none"
     id="path1"
     inkscape:export-filename="monitor1.svg"
     inkscape:export-xdpi="1600"
     inkscape:export-ydpi="1600" /><circle
     style="fill:none;stroke-width:2"
     id="path6"
     cx="15.874881"
     cy="15.874881"
     r="14.874881" /><g
     style="fill:none;stroke:currentColor;stroke-width:2;stroke-linecap:round;stroke-linejoin:round"
     id="g8"
     transform="translate(3.8748808,3.8748808)"><path
       stroke="none"
       d="M 0,0 H 24 V 24 H 0 Z"
       fill="none"
       id="path1-3" /><path
       d="m 10.325,4.317 c 0.426,-1.756 2.924,-1.756 3.35,0 a 1.724,1.724 0 0 0 2.573,1.066 c 1.543,-0.94 3.31,0.826 2.37,2.37 a 1.724,1.724 0 0 0 1.065,2.572 c 1.756,0.426 1.756,2.924 0,3.35 a 1.724,1.724 0 0 0 -1.066,2.573 c 0.94,1.543 -0.826,3.31 -2.37,2.37 a 1.724,1.724 0 0 0 -2.572,1.065 c -0.426,1.756 -2.924,1.756 -3.35,0 A 1.724,1.724 0 0 0 7.752,18.617 c -1.543,0.94 -3.31,-0.826 -2.37,-2.37 A 1.724,1.724 0 0 0 4.317,13.675 c -1.756,-0.426 -1.756,-2.924 0,-3.35 A 1.724,1.724 0 0 0 5.383,7.752 c -0.94,-1.543 0.826,-3.31 2.37,-2.37 1,0.608 2.296,0.07 2.572,-1.065 z"
       id="path2" /><path
       d="m 9,12 a 3,3 0 1 0 6,0 3,3 0 0 0 -6,0"
       id="path3" /></g></svg>
